<?xml version="1.0" encoding="UTF-8"?>
<!-- Generator: Adobe Illustrator 18.0.0, SVG Export Plug-In . SVG Version: 6.00 Build 0)  -->
<!DOCTYPE svg PUBLIC "-//W3C//DTD SVG 1.1//EN" "http://www.w3.org/Graphics/SVG/1.1/DTD/svg11.dtd">
<svg xmlns="http://www.w3.org/2000/svg" xmlns:xlink="http://www.w3.org/1999/xlink" xmlns:dc="http://purl.org/dc/elements/1.1/" xmlns:cc="http://creativecommons.org/ns#" xmlns:rdf="http://www.w3.org/1999/02/22-rdf-syntax-ns#" version="1.1" x="0px" y="0px" viewBox="0 0 32 32" enable-background="new 0 0 32 32" xml:space="preserve">
<title property="dc:title">to chat</title><desc property="dc:description">An icon for "chat" from the Isometric series on to [icon]. Downloaded from http://www.toicon.com/icons/isometric_chat by 173.27.64.249 on 2015-04-08. Licensed CC-BY, see http://toicon.com/license/ for details.</desc><g id="LABELS">
</g>
<g id="DESIGNS">
	<g>
		<g>
			<g>
				<path fill="#F29227" d="M17.101,8.057l-5.754-3.322C9.82,3.853,8.456,3.756,7.558,4.32c-0.31,0.195-1.593,0.872-2.345,1.373      C4.458,6.108,4,6.958,4,8.179v0.098c0,2.515,1.943,5.702,4.427,7.37l1.814,2.838l1.681-0.69      c0.827-1.108,1.851-2.089,2.977-2.739l3.341-1.929l2.413-1.393c0.016-0.009,0.031-0.015,0.046-0.024      C19.803,10.231,18.53,8.881,17.101,8.057z"/>
				<path fill="#F2D76C" d="M11.922,17.795c0.827-1.108,1.851-2.089,2.977-2.739l3.341-1.929c-0.895-1.473-2.165-2.815-3.587-3.636      L8.899,6.17C6.193,4.608,4,5.507,4,8.179v0.098c0,2.515,1.943,5.702,4.427,7.37l1.814,2.838L11.922,17.795z"/>
			</g>
			<g>
				<path fill="#FF7344" d="M8.045,12.307c-0.436-0.252-0.708-0.756-0.708-1.219c0-0.476,0.283-0.648,0.696-0.41      c0.413,0.238,0.708,0.743,0.708,1.22C8.741,12.362,8.457,12.546,8.045,12.307z"/>
				<path fill="#F29227" d="M8.437,9.985c-0.139,0.064-0.85,0.551-0.971,0.678c-0.158,0.165-0.129,0.511-0.129,0.425      c0-0.476,0.283-0.648,0.696-0.41c0.413,0.238,0.708,0.744,0.708,1.22c0,0.21-0.058,0.362-0.16,0.444      c0.195-0.122,0.762-0.525,0.875-0.611C10.033,11.287,9.068,9.693,8.437,9.985z"/>
			</g>
			<g>
				<path fill="#FF7344" d="M10.495,13.707c-0.436-0.252-0.708-0.756-0.708-1.219c0-0.476,0.283-0.648,0.696-0.41      c0.413,0.238,0.708,0.743,0.708,1.22C11.191,13.762,10.907,13.946,10.495,13.707z"/>
				<path fill="#F29227" d="M10.887,11.385c-0.139,0.064-0.85,0.551-0.971,0.678c-0.158,0.165-0.129,0.511-0.129,0.425      c0-0.476,0.283-0.648,0.696-0.41c0.413,0.238,0.708,0.744,0.708,1.22c0,0.21-0.058,0.362-0.16,0.444      c0.195-0.122,0.762-0.525,0.875-0.611C12.483,12.687,11.518,11.093,10.887,11.385z"/>
			</g>
			<g>
				<path fill="#FF7344" d="M12.948,15.114c-0.436-0.252-0.708-0.756-0.708-1.219c0-0.476,0.283-0.648,0.696-0.41      c0.413,0.238,0.708,0.743,0.708,1.22C13.644,15.168,13.361,15.352,12.948,15.114z"/>
				<path fill="#F29227" d="M13.34,12.792c-0.139,0.064-0.85,0.551-0.971,0.678c-0.158,0.165-0.129,0.511-0.129,0.425      c0-0.476,0.283-0.648,0.696-0.41c0.413,0.238,0.708,0.744,0.708,1.22c0,0.21-0.058,0.362-0.16,0.444      c0.195-0.122,0.762-0.525,0.875-0.611C14.936,14.094,13.971,12.499,13.34,12.792z"/>
			</g>
		</g>
		<g>
			<g>
				<path fill="#225B49" d="M24.442,11.32c-0.898-0.564-2.262-0.467-3.789,0.415l-5.754,3.322C12.193,16.619,10,20.051,10,22.723      v0.098c0,1.113,0.381,1.917,1.022,2.363c0.442,0.308,2.179,1.291,2.599,1.534c0.898,0.521,2.234,0.409,3.726-0.453l2.622-1.514      l1.79,0.734l1.814-2.838C26.057,20.979,28,17.792,28,15.277V15.18c0-0.95-0.278-1.674-0.757-2.144      C26.773,12.575,24.832,11.565,24.442,11.32z"/>
				<path fill="#569080" d="M23.101,13.17l-5.754,3.322c-2.705,1.562-4.899,4.994-4.899,7.666v0.098      c0,2.672,2.193,3.571,4.899,2.009l2.622-1.514l1.79,0.734l1.814-2.838C26.057,20.978,28,17.791,28,15.277      C28,12.332,25.666,11.689,23.101,13.17z"/>
			</g>
			<g>
				<g>
					<g>
						<path fill="#225B49" d="M18.672,19.798c-0.12-0.056-0.284-0.034-0.476,0.077c-0.413,0.238-0.708,0.743-0.708,1.22        c0,0.214,0.06,0.368,0.165,0.449c0.123,0.095,0.79,0.567,0.919,0.638c0.122,0.067,0.291,0.05,0.491-0.065        c0.436-0.252,0.708-0.756,0.708-1.219c0-0.193-0.046-0.335-0.129-0.421C19.522,20.349,18.811,19.862,18.672,19.798z"/>
					</g>
					<path fill="#7BD6C4" d="M18.369,21.711c0-0.476,0.295-0.982,0.708-1.22s0.696-0.067,0.696,0.41       c0,0.463-0.271,0.967-0.708,1.219C18.652,22.358,18.369,22.174,18.369,21.711z"/>
				</g>
				<g>
					<g>
						<path fill="#225B49" d="M21.094,18.407c-0.12-0.056-0.284-0.034-0.476,0.077c-0.413,0.238-0.708,0.743-0.708,1.22        c0,0.214,0.06,0.368,0.165,0.449c0.123,0.095,0.79,0.567,0.919,0.638c0.122,0.067,0.291,0.05,0.491-0.065        c0.436-0.252,0.708-0.756,0.708-1.219c0-0.193-0.046-0.335-0.129-0.421C21.944,18.958,21.233,18.471,21.094,18.407z"/>
					</g>
					<path fill="#7BD6C4" d="M20.791,20.32c0-0.476,0.295-0.982,0.708-1.22s0.696-0.067,0.696,0.41c0,0.463-0.271,0.967-0.708,1.219       C21.074,20.967,20.791,20.783,20.791,20.32z"/>
				</g>
				<g>
					<g>
						<path fill="#225B49" d="M23.563,16.985c-0.12-0.056-0.284-0.034-0.476,0.077c-0.413,0.238-0.708,0.743-0.708,1.22        c0,0.214,0.06,0.368,0.165,0.449c0.123,0.095,0.79,0.567,0.919,0.638c0.122,0.067,0.291,0.05,0.491-0.065        c0.436-0.252,0.708-0.756,0.708-1.219c0-0.193-0.046-0.335-0.129-0.421C24.413,17.536,23.701,17.05,23.563,16.985z"/>
					</g>
					<path fill="#7BD6C4" d="M23.259,18.898c0-0.476,0.295-0.982,0.708-1.22s0.696-0.067,0.696,0.41       c0,0.463-0.271,0.967-0.708,1.219C23.543,19.546,23.259,19.362,23.259,18.898z"/>
				</g>
			</g>
		</g>
	</g>
</g>
<metadata><work rdf:about=""><format>image/svg+xml</format><type rdf:resource="http://purl.org/dc/dcmitype/StillImage"/><license rdf:resource="http://creativecommons.org/licenses/by/4.0/"/><attributionname>Jo Szczepanska</attributionname><attributionurl>http://www.toicon.com/icons/isometric_chat</attributionurl></work></metadata></svg>
