<?xml version="1.0" encoding="UTF-8"?>
<!-- Generator: Adobe Illustrator 18.0.0, SVG Export Plug-In . SVG Version: 6.00 Build 0)  -->
<!DOCTYPE svg PUBLIC "-//W3C//DTD SVG 1.1//EN" "http://www.w3.org/Graphics/SVG/1.1/DTD/svg11.dtd">
<svg xmlns="http://www.w3.org/2000/svg" xmlns:xlink="http://www.w3.org/1999/xlink" xmlns:dc="http://purl.org/dc/elements/1.1/" xmlns:cc="http://creativecommons.org/ns#" xmlns:rdf="http://www.w3.org/1999/02/22-rdf-syntax-ns#" version="1.1" x="0px" y="0px" viewBox="0 0 32 32" enable-background="new 0 0 32 32" xml:space="preserve">
<title property="dc:title">to home</title><desc property="dc:description">An icon for "home" from the Isometric series on to [icon]. Downloaded from http://www.toicon.com/icons/isometric_home by 173.27.64.249 on 2015-04-08. Licensed CC-BY, see http://toicon.com/license/ for details.</desc><g id="LABELS">
</g>
<g id="DESIGNS">
	<g>
		<polygon fill="#FF7344" points="20.042,6.945 12.632,18.191 27,9.724   "/>
		<polygon fill="#F05A28" points="27,9.724 12.808,3.038 20.042,6.945   "/>
		<polygon fill="#BE1E2D" points="20.042,6.945 12.708,3 5,13.952 12.632,18.173   "/>
		<polygon fill="#569080" points="15,16.806 12.632,18.191 12.632,18.173 8,15.474 8,23.76 15,28   "/>
		<g>
			<polygon fill="#7BD6C4" points="15,16.806 15,28 16.534,27.134 16.534,20.891 20.201,18.774 20.201,25.064 25,22.355 25,11.074         "/>
			<polygon fill="#569080" points="23.791,16.504 21.347,17.916 21.347,15.111 23.791,13.699    "/>
			<polygon fill="#F28103" points="20.201,25.035 16.534,27.152 16.534,20.891 20.201,18.774    "/>
		</g>
	</g>
</g>
<metadata><work rdf:about=""><format>image/svg+xml</format><type rdf:resource="http://purl.org/dc/dcmitype/StillImage"/><license rdf:resource="http://creativecommons.org/licenses/by/4.0/"/><attributionname>Jo Szczepanska</attributionname><attributionurl>http://www.toicon.com/icons/isometric_home</attributionurl></work></metadata></svg>
