<?xml version="1.0" encoding="UTF-8"?>
<!-- Generator: Adobe Illustrator 18.0.0, SVG Export Plug-In . SVG Version: 6.00 Build 0)  -->
<!DOCTYPE svg PUBLIC "-//W3C//DTD SVG 1.1//EN" "http://www.w3.org/Graphics/SVG/1.1/DTD/svg11.dtd">
<svg xmlns="http://www.w3.org/2000/svg" xmlns:xlink="http://www.w3.org/1999/xlink" xmlns:dc="http://purl.org/dc/elements/1.1/" xmlns:cc="http://creativecommons.org/ns#" xmlns:rdf="http://www.w3.org/1999/02/22-rdf-syntax-ns#" version="1.1" x="0px" y="0px" viewBox="0 0 32 32" enable-background="new 0 0 32 32" xml:space="preserve">
<title property="dc:title">to search</title><desc property="dc:description">An icon for "search" from the Isometric series on to [icon]. Downloaded from http://www.toicon.com/icons/isometric_search by 173.27.64.249 on 2015-04-08. Licensed CC-BY, see http://toicon.com/license/ for details.</desc><g id="LABELS">
</g>
<g id="DESIGNS">
	<g>
		<g>
			<path fill="#BE1E2D" d="M22.985,10.562c-0.156-1.736-1.505-3.004-3.4-3.802c-2.348-1.005-5.534-1.268-8.328-0.809     C7.836,6.501,5,8.129,5,10.836c0,0.003,0,0.005,0,0.008h0v1.504h0.012v0.01c0,4.119,7.382,6.219,12.893,4.707l0.864,0.864     l0.023-0.023c-0.527-0.844,1.199-2.567,2.06-2.06l0.01-0.01l-0.035-0.035c1.404-0.936,2.131-2.094,2.173-3.264v-1.975H22.985z"/>
			<path fill="#F29227" d="M27.537,22.564l0.013-0.013l-6.14-6.14c-0.107-0.123-0.267-0.195-0.472-0.195     c-0.802,0-1.812,1.018-1.812,1.81c0,0.191,0.061,0.344,0.171,0.449l6.16,6.169l0.022-0.022     C24.876,23.782,26.676,21.975,27.537,22.564z"/>
			<path fill="#F28103" d="M25.961,24.862c-0.374,0-0.607-0.231-0.607-0.604c0-0.81,1.024-1.814,1.824-1.814     c0.374,0,0.607,0.231,0.607,0.604C27.785,23.858,26.761,24.862,25.961,24.862z"/>
			<path fill="#F05A28" d="M19.129,18.011c0-0.803,1.029-1.794,1.799-1.794c0.063,0,0.125,0.007,0.184,0.021     c-0.047-0.299-0.266-0.481-0.596-0.481c-0.819,0-1.821,1.025-1.821,1.809c0,0.314,0.168,0.525,0.445,0.585     C19.132,18.105,19.129,18.059,19.129,18.011z"/>
		</g>
		<g>
			<path fill="#569080" d="M9.348,13.583c0.968-2.535,3.053-4.516,5.669-5.309c-0.308-0.022-0.614-0.048-0.934-0.048     c-3.524,0-6.402,1.402-6.643,3.177C7.685,12.453,8.486,13.089,9.348,13.583z"/>
			<path fill="#8FC0B3" d="M15.017,8.273c-2.616,0.793-4.701,2.775-5.669,5.309c1.369,0.707,3.002,1.117,4.697,1.117     c2.586,0,6.465-1.131,6.583-3.705C20.094,9.576,17.837,8.478,15.017,8.273z"/>
		</g>
	</g>
	<g>
		<path fill="#F05A28" d="M23,10.901c0-6.857-18-6.886-18-0.065C5,17.661,23,17.737,23,10.901z M20.637,10.893    c0,2.623-3.956,3.808-6.596,3.808c-2.655,0-6.679-1.206-6.679-3.856C7.363,5.797,20.637,5.862,20.637,10.893z"/>
	</g>
</g>
<metadata><work rdf:about=""><format>image/svg+xml</format><type rdf:resource="http://purl.org/dc/dcmitype/StillImage"/><license rdf:resource="http://creativecommons.org/licenses/by/4.0/"/><attributionname>Jo Szczepanska</attributionname><attributionurl>http://www.toicon.com/icons/isometric_search</attributionurl></work></metadata></svg>
