<?xml version="1.0" encoding="UTF-8"?>
<!-- Generator: Adobe Illustrator 18.0.0, SVG Export Plug-In . SVG Version: 6.00 Build 0)  -->
<!DOCTYPE svg PUBLIC "-//W3C//DTD SVG 1.1//EN" "http://www.w3.org/Graphics/SVG/1.1/DTD/svg11.dtd">
<svg xmlns="http://www.w3.org/2000/svg" xmlns:xlink="http://www.w3.org/1999/xlink" xmlns:dc="http://purl.org/dc/elements/1.1/" xmlns:cc="http://creativecommons.org/ns#" xmlns:rdf="http://www.w3.org/1999/02/22-rdf-syntax-ns#" version="1.1" x="0px" y="0px" viewBox="0 0 32 32" enable-background="new 0 0 32 32" xml:space="preserve">
<title property="dc:title">to adjust</title><desc property="dc:description">An icon for "adjust" from the Isometric series on to [icon]. Downloaded from http://www.toicon.com/icons/isometric_adjust by 173.27.64.249 on 2015-04-08. Licensed CC-BY, see http://toicon.com/license/ for details.</desc><g id="LABELS">
</g>
<g id="DESIGNS">
	<g>
		<g>
			<path fill="#569080" d="M17.999,15.559c0-0.004-0.002-0.008-0.002-0.011c-0.005,0.437-0.293,0.873-0.869,1.206     c-1.168,0.674-3.067,0.671-4.243-0.008c-0.578-0.334-0.869-0.768-0.881-1.204c0,0.006-0.003,0.012-0.003,0.018     c0,0.003,0,0.01,0,0.013c0,0,0,0.002,0,0.002c0,0.018,0.004,1.399,0.004,1.399c0.041,0.411,0.325,0.816,0.867,1.13     c1.16,0.67,3.086,0.675,4.256,0c0.543-0.313,0.826-0.719,0.867-1.13c0-0.019,0.004-1.399,0.004-1.399c0-0.001,0-0.001,0-0.002     C17.999,15.569,17.999,15.563,17.999,15.559z"/>
			<g>
				<path fill="#7BD6C4" d="M17.115,14.304c-1.175-0.678-3.075-0.682-4.243-0.008c-1.168,0.674-1.162,1.771,0.013,2.449      c1.175,0.678,3.075,0.682,4.243,0.008C18.296,16.079,18.29,14.983,17.115,14.304z"/>
			</g>
		</g>
		<path fill="#F05A28" d="M17.999,21.767c0-0.004-0.002-0.008-0.002-0.011c-0.005,0.437-0.293,0.873-0.869,1.206    c-1.168,0.674-3.067,0.671-4.243-0.008c-0.578-0.334-0.869-0.768-0.881-1.204c0,0.006-0.003,0.012-0.003,0.018    c0,0.003,0,0.01,0,0.013c0,0.001,0,0.002,0,0.002c0,0.018,0.004,1.399,0.004,1.399c0.041,0.411,0.325,0.816,0.867,1.13    c1.16,0.67,3.086,0.675,4.256,0c0.543-0.313,0.826-0.719,0.867-1.13c0-0.019,0.004-1.399,0.004-1.399c0-0.001,0-0.001,0-0.002    C17.999,21.777,17.999,21.77,17.999,21.767z"/>
		<g>
			<path fill="#FF7344" d="M17.115,20.511c-1.175-0.678-3.075-0.682-4.243-0.008c-1.168,0.674-1.162,1.771,0.013,2.449     c1.175,0.678,3.075,0.682,4.243,0.008C18.296,22.286,18.29,21.19,17.115,20.511z"/>
		</g>
		<g>
			<g>
				<path fill="#225B49" d="M12.571,14.508l-2.489-1.437l-1.025,0.592c0.66,0.381,0.072,0.041,2.966,1.712      C12.078,14.988,12.268,14.751,12.571,14.508z"/>
				<path fill="#225B49" d="M17.789,17.52c-0.144,0.213-0.363,0.412-0.661,0.584c-0.064,0.037-0.13,0.071-0.198,0.104l4.856,2.804      c0.629-0.363,0.388-0.224,1.025-0.592L17.789,17.52z"/>
			</g>
			<path fill="#225B49" d="M12.814,20.541l-7.79-4.497L4,16.635l8.094,4.673C12.23,20.992,12.505,20.73,12.814,20.541z"/>
			<path fill="#225B49" d="M17.222,11.254c-0.031,0.019-0.062,0.038-0.094,0.057c-0.332,0.192-0.725,0.328-1.144,0.411l10.992,6.346     L28,17.476L17.222,11.254z"/>
		</g>
		<g>
			<path fill="#569080" d="M17.999,8.767c0-0.004-0.002-0.008-0.002-0.011c-0.005,0.437-0.293,0.873-0.869,1.206     c-1.168,0.674-3.067,0.671-4.243-0.008c-0.578-0.334-0.869-0.768-0.881-1.204c0,0.006-0.003,0.012-0.003,0.018     c0,0.003,0,0.01,0,0.013c0,0.001,0,0.002,0,0.002c0,0.018,0.004,1.399,0.004,1.399c0.041,0.411,0.325,0.816,0.867,1.13     c1.16,0.67,3.086,0.675,4.256,0c0.543-0.313,0.826-0.719,0.867-1.13c0-0.019,0.004-1.399,0.004-1.399c0-0.001,0-0.001,0-0.002     C17.999,8.777,17.999,8.77,17.999,8.767z"/>
			<g>
				<path fill="#7BD6C4" d="M17.115,7.511c-1.175-0.678-3.075-0.682-4.243-0.008c-1.168,0.674-1.162,1.771,0.013,2.449      c1.175,0.678,3.075,0.682,4.243,0.008C18.296,9.286,18.29,8.19,17.115,7.511z"/>
			</g>
		</g>
	</g>
</g>
<metadata><work rdf:about=""><format>image/svg+xml</format><type rdf:resource="http://purl.org/dc/dcmitype/StillImage"/><license rdf:resource="http://creativecommons.org/licenses/by/4.0/"/><attributionname>Jo Szczepanska</attributionname><attributionurl>http://www.toicon.com/icons/isometric_adjust</attributionurl></work></metadata></svg>
